<?xml version="1.0" encoding="utf-8"?>
<!-- Generator: Adobe Illustrator 18.0.0, SVG Export Plug-In . SVG Version: 6.00 Build 0)  -->
<!DOCTYPE svg PUBLIC "-//W3C//DTD SVG 1.1//EN" "http://www.w3.org/Graphics/SVG/1.1/DTD/svg11.dtd">
<svg version="1.1" id="Layer_1" xmlns="http://www.w3.org/2000/svg" xmlns:xlink="http://www.w3.org/1999/xlink" x="0px" y="0px"
	 viewBox="0 0 200 60.5" enable-background="new 0 0 200 60.5" xml:space="preserve">
<g>
	<g>
		<defs>
			<rect id="SVGID_1_" y="0" width="200" height="60.5"/>
		</defs>
		<clipPath id="SVGID_2_">
			<use xlink:href="#SVGID_1_"  overflow="visible"/>
		</clipPath>
		<path clip-path="url(#SVGID_2_)" fill="#ffffff" d="M177.5,8.6c-0.3,0-0.5-0.1-0.8-0.1l-0.3,0c-0.5-0.1-0.9-0.1-1.4-0.2
			c-0.3,0-0.6-0.1-1-0.1c-0.6,0-1.1-0.1-1.7-0.1c-0.2,0-0.4,0-0.6,0c-0.5,0-0.9,0-1.3,0.1c-0.2,0-0.5,0-0.7,0.1
			c-0.4,0-0.7,0.1-1.1,0.1l-0.3,0l-0.3,0l-0.4,0.1c-0.2,0-0.3,0.1-0.5,0.1c-0.2,0-0.5,0.1-0.7,0.1c-1.4,0.3-2.8,0.7-4,1.2
			c-0.6,0.3-1.2,0.5-1.8,0.8c-0.5,0.2-0.9,0.5-1.4,0.8c-0.4,0.3-0.8,0.5-1.2,0.8c-0.2,0.2-0.5,0.3-0.7,0.5c-0.2,0.1-0.4,0.3-0.6,0.4
			c-0.4,0.3-0.8,0.6-1.1,1c-0.3,0.3-0.6,0.6-0.9,0.9c-0.3,0.3-0.5,0.5-0.7,0.8c-0.2,0.3-0.5,0.6-0.7,0.9c-0.3,0.3-0.5,0.7-0.7,1
			c-0.2,0.3-0.3,0.5-0.5,0.8c-0.1,0.2-0.2,0.4-0.3,0.5c-0.6,1.1-1.2,2.3-1.6,3.5c-0.6,1.5-1,3.2-1.2,5c-0.1,0.6-0.1,1.1-0.2,1.7
			c0,0.4,0,0.9,0,1.4c0,0.3,0,0.7,0,1c0,0.3,0,0.7,0.1,1l0,0.2c0,0.4,0.1,0.8,0.2,1.2c0,0.2,0.1,0.3,0.1,0.5c0.1,0.3,0.1,0.7,0.2,1
			c0.1,0.4,0.2,0.8,0.3,1.2c0.2,0.5,0.3,1,0.5,1.4c0.3,0.7,0.6,1.4,1,2.1c0.2,0.4,0.4,0.8,0.6,1.1c0.2,0.3,0.3,0.6,0.5,0.8
			c0.2,0.4,0.5,0.7,0.7,1c0.3,0.3,0.5,0.7,0.8,1c0.3,0.4,0.6,0.7,1,1.1l0.2,0.2c0.3,0.3,0.5,0.5,0.9,0.8c0.2,0.2,0.4,0.4,0.7,0.6
			c0.2,0.2,0.5,0.4,0.7,0.6c0.3,0.2,0.6,0.5,1,0.7c0.4,0.2,0.7,0.5,1.1,0.7c0.8,0.5,1.7,0.9,2.6,1.3c0.4,0.2,0.7,0.3,1.1,0.4
			c0.4,0.1,0.8,0.3,1.2,0.4c0.7,0.2,1.4,0.4,2.2,0.6c0.6,0.1,1.3,0.2,1.9,0.3c0.7,0.1,1.3,0.1,2.1,0.2c0.3,0,0.7,0,1,0
			c0.2,0,0.3,0,0.5,0c1.3,0,2.4-0.1,3.5-0.1l0.2,0c0.4,0,0.9-0.1,1.3-0.1c0.6-0.1,1.2-0.2,1.8-0.3c0.4-0.1,0.7-0.1,1-0.2
			c0.5-0.1,1-0.2,1.5-0.4c0.3-0.1,0.7-0.2,1-0.3c0.4-0.1,0.8-0.3,1.1-0.4l0.3-0.1c0.2-0.1,0.4-0.2,0.7-0.3c0.4-0.1,0.8-0.3,1.3-0.6
			c0.3-0.1,0.6-0.3,1-0.4c0.3-0.1,0.6-0.3,0.9-0.5c0.1-0.1,0.3-0.1,0.4-0.2v-8.2c-0.1,0.1-0.2,0.1-0.3,0.2l-0.5,0.3
			c-0.5,0.3-1,0.7-1.6,1c-0.6,0.3-1.1,0.6-1.7,0.9c-1,0.5-1.9,0.9-2.8,1.2c-1.7,0.6-3.2,1-4.6,1.3c-0.2,0-0.3,0.1-0.5,0.1
			c-0.4,0.1-0.7,0.1-1.1,0.1c-0.5,0.1-1,0.1-1.5,0.1c-0.3,0-0.6,0-0.8,0c-0.5,0-1.1,0-1.7-0.1c-0.7-0.1-1.4-0.1-2.1-0.3
			c-1.1-0.2-2.2-0.5-3.4-0.9c-0.2-0.1-0.3-0.1-0.5-0.2c-0.1,0-0.2-0.1-0.3-0.1c-0.2-0.1-0.4-0.2-0.5-0.3c-0.4-0.2-0.8-0.4-1.1-0.6
			c-0.2-0.1-0.4-0.2-0.5-0.3c-0.2-0.1-0.4-0.3-0.5-0.4c-0.2-0.2-0.5-0.3-0.7-0.5c-0.2-0.2-0.4-0.4-0.6-0.5l-0.3-0.2l-0.1-0.1
			l-0.1-0.1l-0.1-0.1c-0.3-0.4-0.7-0.7-1-1.1c-0.2-0.2-0.3-0.4-0.5-0.6c-0.1-0.2-0.3-0.4-0.4-0.6c-0.1-0.2-0.2-0.4-0.3-0.6
			c-0.2-0.3-0.3-0.6-0.4-0.9c-0.1-0.2-0.2-0.5-0.3-0.7c-0.2-0.4-0.3-0.8-0.4-1.2c-0.1-0.3-0.2-0.6-0.2-0.9c-0.2-0.9-0.3-1.6-0.4-2.3
			c0-0.3,0-0.5,0-0.7c0-0.3,0-0.6,0-0.8c0-0.1,0-0.3,0-0.5c0-0.5,0.1-1.1,0.1-1.7c0.1-0.4,0.1-0.8,0.2-1.3c0.1-0.3,0.2-0.6,0.2-0.9
			c0.1-0.3,0.2-0.6,0.3-0.9c0.1-0.2,0.2-0.4,0.2-0.6c0.1-0.3,0.2-0.6,0.4-0.8c0.1-0.2,0.2-0.4,0.3-0.6c0.3-0.5,0.5-0.9,0.9-1.4
			c0.1-0.2,0.2-0.3,0.4-0.5c0.2-0.2,0.3-0.4,0.5-0.6c0.1-0.1,0.2-0.2,0.3-0.3c1.4-1.5,3-2.6,4.7-3.4c0.3-0.1,0.5-0.2,0.8-0.3
			c0.3-0.1,0.5-0.2,0.8-0.3c0.3-0.1,0.6-0.2,0.9-0.3c0.3-0.1,0.5-0.2,0.8-0.2c0.3-0.1,0.5-0.1,0.8-0.2c0.3-0.1,0.6-0.1,0.9-0.1
			c0.3,0,0.6-0.1,0.9-0.1c0.6-0.1,1.1-0.1,1.7-0.1c0.2,0,0.4,0,0.5,0c0.4,0,0.8,0,1.2,0c0.3,0,0.5,0,0.8,0.1c0.5,0,1,0.1,1.4,0.2
			c0.4,0.1,0.8,0.1,1.1,0.2c0.6,0.1,1.1,0.2,1.5,0.4c0.3,0.1,0.6,0.2,0.8,0.2c0.4,0.1,0.7,0.2,0.9,0.3c0.4,0.2,0.7,0.2,0.7,0.2
			c0.4,0.1,0.8,0.3,1.1,0.5c0.5,0.2,1,0.4,1.4,0.6c0.4,0.2,0.7,0.4,1.1,0.5c0.3,0.1,0.5,0.3,0.8,0.4c0.4,0.2,0.8,0.4,1.1,0.6
			l0.8,0.5v-8c0,0-0.5-0.2-1.3-0.5c-0.4-0.1-0.8-0.3-1.3-0.5c-0.3-0.1-0.6-0.2-0.9-0.3c-0.2-0.1-0.5-0.2-0.7-0.3
			c-0.3-0.1-0.6-0.2-0.9-0.3c-0.2-0.1-0.5-0.1-0.7-0.2l-0.2-0.1c-0.2-0.1-0.5-0.1-0.7-0.2c-0.3-0.1-0.6-0.2-0.8-0.2
			c-0.2,0-0.4-0.1-0.6-0.1c-0.3-0.1-0.6-0.1-0.9-0.2C178.2,8.7,177.9,8.6,177.5,8.6L177.5,8.6z M139.5,0.2h60.5v60.1h-60.5V0.2
			L139.5,0.2z"/>
		<path clip-path="url(#SVGID_2_)" fill="#ffffff" d="M93,33.3v11.8h7.3c0,0,0.1,0,0.4,0c0.2,0,0.6,0,1-0.1c0.8-0.1,1.8-0.2,2.8-0.6
			c0.9-0.3,1.8-0.8,2.5-1.5c0.3-0.3,0.5-0.6,0.7-0.9c0.6-0.9,0.7-1.9,0.7-2.5c0-0.2,0-0.4,0-0.4s0-0.1,0-0.3c0-0.2,0-0.7-0.1-1.1
			c-0.1-0.6-0.4-1.2-0.8-1.8c-0.1-0.1-0.2-0.2-0.3-0.3c-0.2-0.2-0.4-0.4-0.7-0.6c-0.4-0.3-0.9-0.6-1.3-0.8c-0.7-0.3-1.4-0.5-2.2-0.7
			c-0.4-0.1-0.8-0.1-1.3-0.2c-0.3,0-0.5,0-0.8-0.1c-0.2,0-0.5,0-0.8,0C97.4,33.3,93,33.3,93,33.3L93,33.3z"/>
		<path clip-path="url(#SVGID_2_)" fill="#ffffff" d="M93,15.4v11.2h3.5c0,0,0.2,0,0.5,0c0.2,0,0.5,0,0.8,0c0.7-0.1,1.7-0.2,2.7-0.5
			c0.2-0.1,0.4-0.1,0.6-0.2c0.8-0.3,1.5-0.7,2.1-1.3c0.5-0.5,0.8-1,1-1.5c0.2-0.6,0.3-1.3,0.4-1.7c0-0.4,0-0.6,0-0.6s0-0.2,0-0.5
			c0-0.5-0.1-1.3-0.5-2c-0.2-0.4-0.4-0.7-0.7-1.1c-0.4-0.4-0.9-0.7-1.4-1c-1-0.5-2.1-0.6-3.1-0.7c-0.4,0-0.8,0-1.1,0
			C97.1,15.4,93,15.4,93,15.4L93,15.4z"/>
		<path clip-path="url(#SVGID_2_)" fill="#ffffff" d="M85.6,8.6v43.3h15.4c0,0,7.5,0.2,11.7-4.2c3.4-3.6,3.1-7.7,3.1-7.7
			s0.2-4.3-2.9-7.6c-2.7-2.8-6.1-3.6-6.1-3.6s1.5-0.8,2.7-2c0.6-0.6,2.5-2.5,2.5-7c0-4.6-2.9-7.2-2.9-7.2s-3.2-4-10.3-4H85.6
			L85.6,8.6z M69.8,0.2h60.5v60.1H69.8V0.2L69.8,0.2z"/>
		<path clip-path="url(#SVGID_2_)" fill="#ffffff" d="M23.3,33.3v11.8h7.3c0,0,0.1,0,0.4,0c0.2,0,0.6,0,1-0.1
			c0.8-0.1,1.8-0.2,2.8-0.6c0.9-0.3,1.8-0.8,2.5-1.5c0.3-0.3,0.5-0.6,0.6-0.9c0.6-0.9,0.7-1.9,0.7-2.5c0-0.2,0-0.4,0-0.4
			s0-0.1,0-0.3c0-0.2,0-0.7-0.1-1.1c-0.1-0.6-0.4-1.2-0.8-1.8c-0.1-0.1-0.2-0.2-0.3-0.3c-0.2-0.2-0.4-0.4-0.7-0.6
			c-0.4-0.3-0.9-0.6-1.3-0.8c-0.7-0.3-1.4-0.5-2.2-0.7c-0.4-0.1-0.8-0.1-1.3-0.2c-0.3,0-0.5,0-0.8-0.1c-0.2,0-0.5,0-0.8,0
			C27.8,33.3,23.3,33.3,23.3,33.3L23.3,33.3z"/>
		<path clip-path="url(#SVGID_2_)" fill="#ffffff" d="M23.3,15.4v11.2h3.5c0,0,0.2,0,0.5,0c0.2,0,0.5,0,0.8,0
			c0.7-0.1,1.7-0.2,2.7-0.5c0.2-0.1,0.4-0.1,0.6-0.2c0.8-0.3,1.5-0.7,2.1-1.3c0.5-0.5,0.8-1,1-1.5c0.2-0.6,0.3-1.3,0.4-1.7
			c0-0.4,0-0.6,0-0.6s0-0.2,0-0.5c0-0.5-0.1-1.3-0.5-2c-0.2-0.4-0.4-0.7-0.7-1.1c-0.4-0.4-0.9-0.7-1.4-1c-1-0.5-2.1-0.6-3.1-0.7
			c-0.4,0-0.8,0-1.1,0C27.5,15.4,23.3,15.4,23.3,15.4L23.3,15.4z"/>
		<path clip-path="url(#SVGID_2_)" fill="#ffffff" d="M16,8.6v43.3h15.4c0,0,7.5,0.2,11.7-4.2c3.4-3.6,3.1-7.7,3.1-7.7
			s0.2-4.3-2.9-7.6c-2.7-2.8-6.1-3.6-6.1-3.6s1.5-0.8,2.7-2c0.6-0.6,2.5-2.5,2.5-7c0-4.6-2.9-7.2-2.9-7.2s-3.2-4-10.3-4H16L16,8.6z
			 M0.1,0.2h60.5v60.1H0.1V0.2L0.1,0.2z"/>
	</g>
</g>
</svg>
